<svg width="382" height="352" viewBox="0 0 382 352" fill="none" xmlns="http://www.w3.org/2000/svg">
<mask id="path-1-outside-1_67_8" maskUnits="userSpaceOnUse" x="-0.363647" y="0" width="382" height="352" fill="black">
<rect fill="white" x="-0.363647" width="382" height="352"/>
<path d="M1.00003 346.1C15.9334 332.1 30.8667 316.933 45.8 300.6C61.2 284.267 75.4334 268.4 88.5 253C90.8334 250.667 92.9334 248.1 94.8 245.3C97.1334 242.5 99.2334 239.933 101.1 237.6L157.1 172.5L94.8 103.2C86.4 93.8667 79.4 85.7 73.8 78.7C62.6 66.5667 50.7 53.9667 38.1 40.9C25.9667 27.8333 15 16.6333 5.20003 7.29998V1H149.4L164.1 44.4L160.6 48.6C151.267 47.6667 141.467 46.5 131.2 45.1C121.4 43.7 112.533 42.7667 104.6 42.3L192.8 143.8L234.1 95.5C238.3 90.3667 242.267 85.4667 246 80.8C250.2 75.6667 254.633 71 259.3 66.8C263.033 61.6667 266.767 56.7667 270.5 52.1C274.7 47.4333 279.133 42.7667 283.8 38.1C275.4 38.5667 265.833 39.7333 255.1 41.6C244.367 43.4666 234.1 45.3333 224.3 47.2L221.5 43L236.2 1H369.9V5.89998C356.833 18.9666 343.067 33.6666 328.6 50C314.6 65.8667 300.833 81.2666 287.3 96.2L278.2 106.7L220.1 172.5L281.7 241.1C282.167 241.567 282.633 242.267 283.1 243.2C284.033 243.667 284.733 244.133 285.2 244.6C301.067 262.333 316.7 279.833 332.1 297.1C347.967 313.9 364.067 330.233 380.4 346.1V351H232L218 310.4L221.5 306.2C228.967 307.6 238.533 309 250.2 310.4C262.333 311.333 272.833 312.033 281.7 312.5L184.4 200.5L144.5 249.5C139.833 254.633 135.4 260 131.2 265.6C127 270.733 122.8 275.867 118.6 281C113.933 286.133 109.5 291.267 105.3 296.4C101.567 301.533 97.3667 306.667 92.7 311.8C98.7667 311.333 104.833 310.867 110.9 310.4C117.433 309.933 123.733 309.467 129.8 309C133.533 308.533 137.033 308.067 140.3 307.6C143.567 307.133 146.367 306.9 148.7 306.9L152.9 311.1L138.2 351H1.00003V346.1Z"/>
</mask>
<path d="M1.00003 346.1C15.9334 332.1 30.8667 316.933 45.8 300.6C61.2 284.267 75.4334 268.4 88.5 253C90.8334 250.667 92.9334 248.1 94.8 245.3C97.1334 242.5 99.2334 239.933 101.1 237.6L157.1 172.5L94.8 103.2C86.4 93.8667 79.4 85.7 73.8 78.7C62.6 66.5667 50.7 53.9667 38.1 40.9C25.9667 27.8333 15 16.6333 5.20003 7.29998V1H149.4L164.1 44.4L160.6 48.6C151.267 47.6667 141.467 46.5 131.2 45.1C121.4 43.7 112.533 42.7667 104.6 42.3L192.8 143.8L234.1 95.5C238.3 90.3667 242.267 85.4667 246 80.8C250.2 75.6667 254.633 71 259.3 66.8C263.033 61.6667 266.767 56.7667 270.5 52.1C274.7 47.4333 279.133 42.7667 283.8 38.1C275.4 38.5667 265.833 39.7333 255.1 41.6C244.367 43.4666 234.1 45.3333 224.3 47.2L221.5 43L236.2 1H369.9V5.89998C356.833 18.9666 343.067 33.6666 328.6 50C314.6 65.8667 300.833 81.2666 287.3 96.2L278.2 106.7L220.1 172.5L281.7 241.1C282.167 241.567 282.633 242.267 283.1 243.2C284.033 243.667 284.733 244.133 285.2 244.6C301.067 262.333 316.7 279.833 332.1 297.1C347.967 313.9 364.067 330.233 380.4 346.1V351H232L218 310.4L221.5 306.2C228.967 307.6 238.533 309 250.2 310.4C262.333 311.333 272.833 312.033 281.7 312.5L184.4 200.5L144.5 249.5C139.833 254.633 135.4 260 131.2 265.6C127 270.733 122.8 275.867 118.6 281C113.933 286.133 109.5 291.267 105.3 296.4C101.567 301.533 97.3667 306.667 92.7 311.8C98.7667 311.333 104.833 310.867 110.9 310.4C117.433 309.933 123.733 309.467 129.8 309C133.533 308.533 137.033 308.067 140.3 307.6C143.567 307.133 146.367 306.9 148.7 306.9L152.9 311.1L138.2 351H1.00003V346.1Z" fill="white"/>
<path d="M1.00002 346.1L0.316084 345.37L2.47955e-05 345.667V346.1H1.00002ZM45.8 300.6L45.0724 299.914L45.0672 299.92L45.062 299.925L45.8 300.6ZM88.5 253L87.7929 252.293L87.764 252.322L87.7375 252.353L88.5 253ZM94.8 245.3L94.0318 244.66L93.9976 244.701L93.968 244.745L94.8 245.3ZM101.1 237.6L100.342 236.948L100.33 236.961L100.319 236.975L101.1 237.6ZM157.1 172.5L157.858 173.152L158.432 172.485L157.844 171.831L157.1 172.5ZM94.8 103.2L95.5437 102.531L95.5433 102.531L94.8 103.2ZM73.8 78.7L74.5809 78.0753L74.5588 78.0477L74.5348 78.0217L73.8 78.7ZM38.1 40.9L37.3672 41.5804L37.3736 41.5873L37.3802 41.5941L38.1 40.9ZM5.20003 7.29999H4.20003V7.72855L4.51037 8.02411L5.20003 7.29999ZM5.20003 1V0H4.20003V1H5.20003ZM149.4 1L150.347 0.679199L150.117 0H149.4V1ZM164.1 44.4L164.868 45.0402L165.227 44.6098L165.047 44.0792L164.1 44.4ZM160.6 48.6L160.501 49.595L161.029 49.6478L161.368 49.2402L160.6 48.6ZM131.2 45.1L131.059 46.09L131.065 46.0908L131.2 45.1ZM104.6 42.3L104.659 41.3017L102.287 41.1622L103.845 42.9559L104.6 42.3ZM192.8 143.8L192.045 144.456L192.806 145.332L193.56 144.45L192.8 143.8ZM234.1 95.5L234.86 96.1499L234.867 96.1416L234.874 96.1332L234.1 95.5ZM246 80.8L245.226 80.1667L245.219 80.1753L246 80.8ZM259.3 66.8L259.969 67.5433L260.047 67.4731L260.109 67.3882L259.3 66.8ZM270.5 52.1L269.757 51.431L269.737 51.4526L269.719 51.4753L270.5 52.1ZM283.8 38.1L284.507 38.8071L286.358 36.9563L283.745 37.1015L283.8 38.1ZM255.1 41.6L254.929 40.6148V40.6148L255.1 41.6ZM224.3 47.2L223.468 47.7547L223.836 48.3064L224.487 48.1823L224.3 47.2ZM221.5 43L220.556 42.6696L220.392 43.14L220.668 43.5547L221.5 43ZM236.2 1V0H235.491L235.256 0.669647L236.2 1ZM369.9 1H370.9V0H369.9V1ZM369.9 5.89996L370.607 6.60709L370.9 6.31418V5.89996H369.9ZM328.6 50L327.851 49.3369L327.85 49.3384L328.6 50ZM287.3 96.2L286.559 95.5285L286.552 95.5367L286.544 95.5451L287.3 96.2ZM278.2 106.7L278.95 107.362L278.956 107.355L278.2 106.7ZM220.1 172.5L219.35 171.838L218.761 172.506L219.356 173.168L220.1 172.5ZM281.7 241.1L280.956 241.768L280.974 241.788L280.993 241.807L281.7 241.1ZM283.1 243.2L282.206 243.647L282.355 243.945L282.653 244.094L283.1 243.2ZM285.2 244.6L285.945 243.933L285.927 243.913L285.907 243.893L285.2 244.6ZM332.1 297.1L331.354 297.766L331.363 297.776L331.373 297.787L332.1 297.1ZM380.4 346.1H381.4V345.677L381.097 345.383L380.4 346.1ZM380.4 351V352H381.4V351H380.4ZM232 351L231.055 351.326L231.287 352H232V351ZM218 310.4L217.232 309.76L216.871 310.193L217.055 310.726L218 310.4ZM221.5 306.2L221.684 305.217L221.108 305.109L220.732 305.56L221.5 306.2ZM250.2 310.4L250.081 311.393L250.102 311.395L250.123 311.397L250.2 310.4ZM281.7 312.5L281.647 313.499L284 313.622L282.455 311.844L281.7 312.5ZM184.4 200.5L185.155 199.844L184.375 198.947L183.625 199.869L184.4 200.5ZM144.5 249.5L145.24 250.173L145.258 250.153L145.275 250.131L144.5 249.5ZM131.2 265.6L131.974 266.233L131.987 266.217L132 266.2L131.2 265.6ZM118.6 281L119.34 281.673L119.357 281.653L119.374 281.633L118.6 281ZM105.3 296.4L104.526 295.767L104.508 295.789L104.491 295.812L105.3 296.4ZM92.7 311.8L91.9601 311.127L90.2666 312.99L92.7767 312.797L92.7 311.8ZM110.9 310.4L110.829 309.403L110.823 309.403L110.9 310.4ZM129.8 309L129.877 309.997L129.9 309.995L129.924 309.992L129.8 309ZM140.3 307.6L140.441 308.59L140.3 307.6ZM148.7 306.9L149.407 306.193L149.114 305.9H148.7V306.9ZM152.9 311.1L153.838 311.446L154.06 310.845L153.607 310.393L152.9 311.1ZM138.2 351V352H138.897L139.138 351.346L138.2 351ZM1.00002 351H2.47955e-05V352H1.00002V351ZM1.00002 346.1L1.68397 346.83C16.6375 332.811 31.5888 317.626 46.5381 301.275L45.8 300.6L45.062 299.925C30.1446 316.241 15.2293 331.389 0.316084 345.37L1.00002 346.1ZM45.8 300.6L46.5276 301.286C61.9383 284.941 76.1834 269.062 89.2625 253.647L88.5 253L87.7375 252.353C74.6833 267.738 60.4618 283.592 45.0724 299.914L45.8 300.6ZM88.5 253L89.2071 253.707C91.588 251.326 93.7296 248.708 95.6321 245.855L94.8 245.3L93.968 244.745C92.1371 247.492 90.0788 250.007 87.7929 252.293L88.5 253ZM94.8 245.3L95.5682 245.94C97.905 243.136 100.009 240.564 101.881 238.225L101.1 237.6L100.319 236.975C98.4574 239.302 96.3618 241.864 94.0318 244.66L94.8 245.3ZM101.1 237.6L101.858 238.252L157.858 173.152L157.1 172.5L156.342 171.848L100.342 236.948L101.1 237.6ZM157.1 172.5L157.844 171.831L95.5437 102.531L94.8 103.2L94.0564 103.869L156.356 173.169L157.1 172.5ZM94.8 103.2L95.5433 102.531C87.1516 93.2069 80.1651 85.0555 74.5809 78.0753L73.8 78.7L73.0192 79.3247C78.635 86.3444 85.6485 94.5264 94.0567 103.869L94.8 103.2ZM73.8 78.7L74.5348 78.0217C63.3294 65.8825 51.4244 53.2773 38.8199 40.2058L38.1 40.9L37.3802 41.5941C49.9756 54.6561 61.8706 67.2508 73.0652 79.3783L73.8 78.7ZM38.1 40.9L38.8328 40.2195C26.6896 27.1423 15.7083 15.9269 5.88968 6.57584L5.20003 7.29999L4.51037 8.02411C14.2918 17.3397 25.2437 28.5244 37.3672 41.5804L38.1 40.9ZM5.20003 7.29999H6.20003V1H5.20003H4.20003V7.29999H5.20003ZM5.20003 1V2H149.4V1V0H5.20003V1ZM149.4 1L148.453 1.3208L163.153 44.7208L164.1 44.4L165.047 44.0792L150.347 0.679199L149.4 1ZM164.1 44.4L163.332 43.7598L159.832 47.9598L160.6 48.6L161.368 49.2402L164.868 45.0402L164.1 44.4ZM160.6 48.6L160.7 47.6049C151.379 46.6729 141.591 45.5077 131.335 44.1092L131.2 45.1L131.065 46.0908C141.342 47.4923 151.154 48.6604 160.501 49.595L160.6 48.6ZM131.2 45.1L131.341 44.11C121.52 42.707 112.625 41.7704 104.659 41.3017L104.6 42.3L104.541 43.2983C112.441 43.763 121.28 44.693 131.059 46.0899L131.2 45.1ZM104.6 42.3L103.845 42.9559L192.045 144.456L192.8 143.8L193.555 143.144L105.355 41.6441L104.6 42.3ZM192.8 143.8L193.56 144.45L234.86 96.1499L234.1 95.5L233.34 94.8501L192.04 143.15L192.8 143.8ZM234.1 95.5L234.874 96.1332C239.076 90.9974 243.045 86.0945 246.781 81.4247L246 80.8L245.219 80.1753C241.488 84.8388 237.524 89.736 233.326 94.8668L234.1 95.5ZM246 80.8L246.774 81.4332C250.944 76.337 255.342 71.7075 259.969 67.5433L259.3 66.8L258.631 66.0567C253.925 70.2925 249.456 74.9963 245.226 80.1667L246 80.8ZM259.3 66.8L260.109 67.3882C263.834 62.2664 267.558 57.3787 271.281 52.7247L270.5 52.1L269.719 51.4753C265.976 56.1546 262.233 61.0669 258.491 66.2118L259.3 66.8ZM270.5 52.1L271.243 52.769C275.431 48.116 279.852 43.462 284.507 38.8071L283.8 38.1L283.093 37.3929C278.414 42.0713 273.969 46.7507 269.757 51.431L270.5 52.1ZM283.8 38.1L283.745 37.1015C275.296 37.5709 265.69 38.7433 254.929 40.6148L255.1 41.6L255.271 42.5852C265.977 40.7234 275.504 39.5624 283.855 39.0984L283.8 38.1ZM255.1 41.6L254.929 40.6148C244.191 42.4823 233.919 44.3499 224.113 46.2177L224.3 47.2L224.487 48.1823C234.281 46.3167 244.543 44.451 255.271 42.5852L255.1 41.6ZM224.3 47.2L225.132 46.6453L222.332 42.4453L221.5 43L220.668 43.5547L223.468 47.7547L224.3 47.2ZM221.5 43L222.444 43.3303L237.144 1.33035L236.2 1L235.256 0.669647L220.556 42.6696L221.5 43ZM236.2 1V2H369.9V1V0H236.2V1ZM369.9 1H368.9V5.89996H369.9H370.9V1H369.9ZM369.9 5.89996L369.193 5.19287C356.11 18.2761 342.329 32.9911 327.851 49.337L328.6 50L329.349 50.663C343.804 34.3422 357.557 19.6572 370.607 6.60709L369.9 5.89996ZM328.6 50L327.85 49.3384C313.853 65.2019 300.089 80.5986 286.559 95.5285L287.3 96.2L288.041 96.8715C301.577 81.9347 315.347 66.5314 329.35 50.6616L328.6 50ZM287.3 96.2L286.544 95.5451L277.444 106.045L278.2 106.7L278.956 107.355L288.056 96.8549L287.3 96.2ZM278.2 106.7L277.45 106.038L219.35 171.838L220.1 172.5L220.85 173.162L278.95 107.362L278.2 106.7ZM220.1 172.5L219.356 173.168L280.956 241.768L281.7 241.1L282.444 240.432L220.844 171.832L220.1 172.5ZM281.7 241.1L280.993 241.807C281.353 242.167 281.762 242.761 282.206 243.647L283.1 243.2L283.994 242.753C283.504 241.772 282.981 240.966 282.407 240.393L281.7 241.1ZM283.1 243.2L282.653 244.094C283.539 244.538 284.133 244.947 284.493 245.307L285.2 244.6L285.907 243.893C285.334 243.319 284.528 242.796 283.547 242.306L283.1 243.2ZM285.2 244.6L284.455 245.267C300.321 263 315.954 280.499 331.354 297.766L332.1 297.1L332.846 296.434C317.446 279.167 301.812 261.667 285.945 243.933L285.2 244.6ZM332.1 297.1L331.373 297.787C347.249 314.597 363.359 330.94 379.703 346.817L380.4 346.1L381.097 345.383C364.774 329.526 348.684 313.203 332.827 296.413L332.1 297.1ZM380.4 346.1H379.4V351H380.4H381.4V346.1H380.4ZM380.4 351V350H232V351V352H380.4V351ZM232 351L232.945 350.674L218.945 310.074L218 310.4L217.055 310.726L231.055 351.326L232 351ZM218 310.4L218.768 311.04L222.268 306.84L221.5 306.2L220.732 305.56L217.232 309.76L218 310.4ZM221.5 306.2L221.316 307.183C228.812 308.588 238.403 309.992 250.081 311.393L250.2 310.4L250.319 309.407C238.664 308.008 229.121 306.612 221.684 305.217L221.5 306.2ZM250.2 310.4L250.123 311.397C262.262 312.331 272.77 313.031 281.647 313.499L281.7 312.5L281.753 311.501C272.896 311.035 262.405 310.336 250.277 309.403L250.2 310.4ZM281.7 312.5L282.455 311.844L185.155 199.844L184.4 200.5L183.645 201.156L280.945 313.156L281.7 312.5ZM184.4 200.5L183.625 199.869L143.725 248.869L144.5 249.5L145.275 250.131L185.175 201.131L184.4 200.5ZM144.5 249.5L143.76 248.827C139.072 253.984 134.619 259.375 130.4 265L131.2 265.6L132 266.2C136.181 260.625 140.595 255.283 145.24 250.173L144.5 249.5ZM131.2 265.6L130.426 264.967C126.226 270.1 122.026 275.233 117.826 280.367L118.6 281L119.374 281.633C123.574 276.5 127.774 271.367 131.974 266.233L131.2 265.6ZM118.6 281L117.86 280.327C113.182 285.473 108.738 290.619 104.526 295.767L105.3 296.4L106.074 297.033C110.262 291.914 114.684 286.794 119.34 281.673L118.6 281ZM105.3 296.4L104.491 295.812C100.781 300.913 96.6045 306.018 91.9601 311.127L92.7 311.8L93.44 312.473C98.1289 307.315 102.352 302.153 106.109 296.988L105.3 296.4ZM92.7 311.8L92.7767 312.797C98.8434 312.33 104.91 311.864 110.977 311.397L110.9 310.4L110.823 309.403C104.757 309.87 98.69 310.336 92.6233 310.803L92.7 311.8ZM110.9 310.4L110.971 311.397C117.506 310.931 123.808 310.464 129.877 309.997L129.8 309L129.723 308.003C123.659 308.469 117.36 308.936 110.829 309.403L110.9 310.4ZM129.8 309L129.924 309.992C133.662 309.525 137.168 309.058 140.441 308.59L140.3 307.6L140.159 306.61C136.898 307.076 133.404 307.542 129.676 308.008L129.8 309ZM140.3 307.6L140.441 308.59C143.679 308.127 146.429 307.9 148.7 307.9V306.9V305.9C146.304 305.9 143.455 306.139 140.159 306.61L140.3 307.6ZM148.7 306.9L147.993 307.607L152.193 311.807L152.9 311.1L153.607 310.393L149.407 306.193L148.7 306.9ZM152.9 311.1L151.962 310.754L137.262 350.654L138.2 351L139.138 351.346L153.838 311.446L152.9 311.1ZM138.2 351V350H1.00002V351V352H138.2V351ZM1.00002 351H2.00002V346.1H1.00002H2.47955e-05V351H1.00002Z" fill="white" mask="url(#path-1-outside-1_67_8)"/>
</svg>
