<svg width="380" height="350" viewBox="0 0 380 350" fill="none" xmlns="http://www.w3.org/2000/svg">
<path d="M-9.70513e-05 345.1C14.9332 331.1 29.8666 315.933 44.7999 299.6C60.1999 283.267 74.4332 267.4 87.4999 252C89.8332 249.667 91.9332 247.1 93.7999 244.3C96.1332 241.5 98.2332 238.933 100.1 236.6L156.1 171.5L93.7999 102.2C85.3999 92.8667 78.3999 84.7 72.7999 77.7C61.5999 65.5667 49.6999 52.9667 37.0999 39.9C24.9666 26.8333 13.9999 15.6333 4.1999 6.29998V0H148.4L163.1 43.4L159.6 47.6C150.267 46.6667 140.467 45.5 130.2 44.1C120.4 42.7 111.533 41.7667 103.6 41.3L191.8 142.8L233.1 94.5C237.3 89.3667 241.267 84.4667 245 79.8C249.2 74.6667 253.633 70 258.3 65.8C262.033 60.6667 265.767 55.7667 269.5 51.1C273.7 46.4333 278.133 41.7667 282.8 37.1C274.4 37.5667 264.833 38.7333 254.1 40.6C243.367 42.4666 233.1 44.3333 223.3 46.2L220.5 42L235.2 0H368.9V4.89998C355.833 17.9666 342.067 32.6666 327.6 49C313.6 64.8667 299.833 80.2666 286.3 95.2L277.2 105.7L219.1 171.5L280.7 240.1C281.167 240.567 281.633 241.267 282.1 242.2C283.033 242.667 283.733 243.133 284.2 243.6C300.067 261.333 315.7 278.833 331.1 296.1C346.967 312.9 363.067 329.233 379.4 345.1V350H231L217 309.4L220.5 305.2C227.967 306.6 237.533 308 249.2 309.4C261.333 310.333 271.833 311.033 280.7 311.5L183.4 199.5L143.5 248.5C138.833 253.633 134.4 259 130.2 264.6C126 269.733 121.8 274.867 117.6 280C112.933 285.133 108.5 290.267 104.3 295.4C100.567 300.533 96.3666 305.667 91.6999 310.8C97.7666 310.333 103.833 309.867 109.9 309.4C116.433 308.933 122.733 308.467 128.8 308C132.533 307.533 136.033 307.067 139.3 306.6C142.567 306.133 145.367 305.9 147.7 305.9L151.9 310.1L137.2 350H-9.70513e-05V345.1Z" fill="url(#paint0_linear_111_3)"/>
<defs>
<linearGradient id="paint0_linear_111_3" x1="185.136" y1="-144" x2="185.136" y2="490" gradientUnits="userSpaceOnUse">
<stop stop-color="#00F7FF"/>
<stop offset="0.192308" stop-color="#00F7FF"/>
<stop offset="0.346154" stop-color="#0A484A"/>
<stop offset="0.346254" stop-color="#0D0D0D"/>
<stop offset="0.514423" stop-color="#00C1C7"/>
<stop offset="1" stop-color="#00F6FF"/>
</linearGradient>
</defs>
</svg>
