<svg width="326" height="300" viewBox="0 0 326 300" fill="none" xmlns="http://www.w3.org/2000/svg">
<path d="M0.000195831 295.8C12.8002 283.8 25.6002 270.8 38.4002 256.8C51.6002 242.8 63.8002 229.2 75.0002 216C77.0002 214 78.8002 211.8 80.4002 209.4C82.4002 207 84.2002 204.8 85.8002 202.8L133.8 147L80.4002 87.6C73.2002 79.6 67.2002 72.6 62.4002 66.6C52.8002 56.2 42.6002 45.4 31.8002 34.2C21.4002 23 12.0002 13.4 3.6002 5.39998V0H127.2L139.8 37.2L136.8 40.8C128.8 40 120.4 39 111.6 37.8C103.2 36.6 95.6002 35.8 88.8002 35.4L164.4 122.4L199.8 81C203.4 76.6 206.8 72.4 210 68.4C213.6 64 217.4 60 221.4 56.4C224.6 52 227.8 47.8 231 43.8C234.6 39.8 238.4 35.8 242.4 31.8C235.2 32.2 227 33.2 217.8 34.8C208.6 36.4 199.8 38 191.4 39.6L189 36L201.6 0H316.2V4.19998C305 15.4 293.2 28 280.8 42C268.8 55.6 257 68.8 245.4 81.6L237.6 90.6L187.8 147L240.6 205.8C241 206.2 241.4 206.8 241.8 207.6C242.6 208 243.2 208.4 243.6 208.8C257.2 224 270.6 239 283.8 253.8C297.4 268.2 311.2 282.2 325.2 295.8V300H198L186 265.2L189 261.6C195.4 262.8 203.6 264 213.6 265.2C224 266 233 266.6 240.6 267L157.2 171L123 213C119 217.4 115.2 222 111.6 226.8C108 231.2 104.4 235.6 100.8 240C96.8002 244.4 93.0002 248.8 89.4002 253.2C86.2002 257.6 82.6002 262 78.6002 266.4C83.8002 266 89.0002 265.6 94.2002 265.2C99.8002 264.8 105.2 264.4 110.4 264C113.6 263.6 116.6 263.2 119.4 262.8C122.2 262.4 124.6 262.2 126.6 262.2L130.2 265.8L117.6 300H0.000195831V295.8Z" fill="url(#paint0_linear_118_6)"/>
<defs>
<linearGradient id="paint0_linear_118_6" x1="158.688" y1="-126" x2="158.688" y2="420" gradientUnits="userSpaceOnUse">
<stop stop-color="#00F7FF"/>
<stop offset="1" stop-color="#00396F"/>
</linearGradient>
</defs>
</svg>
