<svg width="40" height="40" viewBox="0 0 40 40" fill="none" xmlns="http://www.w3.org/2000/svg">
<path d="M29.6875 12.5H27.8125V7.5H29.6875V12.5ZM28.75 13.75C28.5028 13.75 28.2611 13.8233 28.0555 13.9607C27.85 14.098 27.6898 14.2932 27.5952 14.5216C27.5005 14.7501 27.4758 15.0014 27.524 15.2439C27.5723 15.4863 27.6913 15.7091 27.8661 15.8839C28.0409 16.0587 28.2637 16.1778 28.5061 16.226C28.7486 16.2742 28.9999 16.2495 29.2284 16.1548C29.4568 16.0602 29.652 15.9 29.7893 15.6945C29.9267 15.4889 30 15.2472 30 15C30 14.6685 29.8683 14.3505 29.6339 14.1161C29.3995 13.8817 29.0815 13.75 28.75 13.75Z" fill="url(#paint0_linear_143_85)"/>
<path d="M37.39 17.4201L29.535 2.96256C29.4573 2.82243 29.3436 2.70564 29.2055 2.62433C29.0675 2.54301 28.9102 2.50012 28.75 2.50012C28.5898 2.50012 28.4325 2.54301 28.2945 2.62433C28.1564 2.70564 28.0427 2.82243 27.965 2.96256L20.1113 17.4176C20.0362 17.5546 19.998 17.7088 20.0006 17.865C20.0032 18.0212 20.0464 18.1741 20.126 18.3085C20.2056 18.443 20.3188 18.5544 20.4545 18.6318C20.5902 18.7092 20.7438 18.75 20.9 18.7501H36.6C36.7561 18.7498 36.9094 18.7091 37.0449 18.6317C37.1805 18.5544 37.2935 18.4431 37.3731 18.3088C37.4526 18.1746 37.4959 18.0219 37.4987 17.8659C37.5014 17.7099 37.4635 17.5558 37.3887 17.4188M27.8125 7.50006H29.6875V12.5001H27.8125V7.50006ZM28.75 16.2501C28.5028 16.2501 28.2611 16.1767 28.0555 16.0394C27.85 15.902 27.6898 15.7068 27.5952 15.4784C27.5005 15.25 27.4758 14.9987 27.524 14.7562C27.5723 14.5137 27.6913 14.291 27.8661 14.1162C28.0409 13.9414 28.2637 13.8223 28.5061 13.7741C28.7486 13.7258 28.9999 13.7506 29.2284 13.8452C29.4568 13.9398 29.652 14.1 29.7893 14.3056C29.9267 14.5112 30 14.7528 30 15.0001C30 15.3316 29.8683 15.6495 29.6339 15.8839C29.3995 16.1184 29.0815 16.2501 28.75 16.2501ZM32.5 23.7501V21.2501H21.25V35.0001C21.251 35.6628 21.5147 36.2981 21.9833 36.7667C22.452 37.2354 23.0873 37.4991 23.75 37.5001H27.5V35.0001H23.75V23.7501H32.5ZM15 37.5001H11.25V35.0001H15V19.4576L10.6062 16.8213L11.8938 14.6788L16.2863 17.3138C16.6556 17.5368 16.9613 17.8512 17.1739 18.2267C17.3865 18.6022 17.4988 19.0261 17.5 19.4576V35.0001C17.5 35.6631 17.2366 36.299 16.7678 36.7678C16.2989 37.2367 15.663 37.5001 15 37.5001Z" fill="url(#paint1_linear_143_85)"/>
<path d="M23.33 6.25752L24.53 4.04877C22.7802 3.0161 20.7817 2.48061 18.75 2.50002C16.9968 2.5055 15.2756 2.97009 13.7578 3.84755C12.2399 4.725 10.9784 5.98471 10.0988 7.50127L10 7.50002C8.01088 7.50002 6.10322 8.2902 4.6967 9.69672C3.29018 11.1032 2.5 13.0109 2.5 15C2.5 16.9891 3.29018 18.8968 4.6967 20.3033C6.10322 21.7098 8.01088 22.5 10 22.5V20C8.67392 20 7.40215 19.4732 6.46447 18.5356C5.52678 17.5979 5 16.3261 5 15C5 13.6739 5.52678 12.4022 6.46447 11.4645C7.40215 10.5268 8.67392 10 10 10C10.1622 10.0062 10.3238 10.0229 10.4838 10.05L11.5625 10.1913L11.9488 9.35752C12.5509 8.05981 13.5106 6.96065 14.7152 6.18888C15.9198 5.41711 17.3194 5.00471 18.75 5.00002C20.3643 4.9823 21.9511 5.41799 23.33 6.25752Z" fill="url(#paint2_linear_143_85)"/>
<defs>
<linearGradient id="paint0_linear_143_85" x1="28.75" y1="7.5" x2="28.75" y2="16.25" gradientUnits="userSpaceOnUse">
<stop stop-color="#00DDFF"/>
<stop offset="1" stop-color="#00396F"/>
</linearGradient>
<linearGradient id="paint1_linear_143_85" x1="24.0525" y1="2.50012" x2="24.0525" y2="37.5001" gradientUnits="userSpaceOnUse">
<stop stop-color="#00DDFF"/>
<stop offset="1" stop-color="#00396F"/>
</linearGradient>
<linearGradient id="paint2_linear_143_85" x1="13.515" y1="2.49951" x2="13.515" y2="22.5" gradientUnits="userSpaceOnUse">
<stop stop-color="#00DDFF"/>
<stop offset="1" stop-color="#00396F"/>
</linearGradient>
</defs>
</svg>
