<svg width="40" height="40" viewBox="0 0 40 40" fill="none" xmlns="http://www.w3.org/2000/svg">
<path fill-rule="evenodd" clip-rule="evenodd" d="M19.3661 0C19.016 0 18.6801 0.144104 18.4325 0.400611C18.1849 0.657118 18.0458 1.00502 18.0458 1.36777V10.7142H15.163L12.0337 7.47259C12.3778 6.5953 12.4184 5.62172 12.1487 4.71695C11.8789 3.81218 11.3153 3.03192 10.5535 2.50848C9.79175 1.98505 8.87865 1.75066 7.96908 1.84506C7.0595 1.93947 6.20945 2.35686 5.56306 3.02645C4.91667 3.69605 4.51375 4.57662 4.42262 5.51885C4.33148 6.46108 4.55775 7.40696 5.06304 8.19609C5.56834 8.98522 6.32156 9.56901 7.19497 9.84848C8.06838 10.1279 9.00822 10.0859 9.8551 9.72941L13.4359 13.4379C13.7247 13.7372 14.1163 13.9055 14.5248 13.9057H18.0458V18.009H7.61224C7.25673 17.1363 6.62078 16.4179 5.81224 15.9755C5.00371 15.5332 4.07236 15.3942 3.17615 15.582C2.27995 15.7699 1.47406 16.2731 0.895165 17.0063C0.316268 17.7395 0 18.6575 0 19.6047C0 20.5519 0.316268 21.47 0.895165 22.2031C1.47406 22.9363 2.27995 23.4395 3.17615 23.6274C4.07236 23.8153 5.00371 23.6762 5.81224 23.2339C6.62078 22.7916 7.25673 22.0731 7.61224 21.2004H18.0458V26.2156H13.6446C13.2361 26.2156 12.8435 26.3834 12.5557 26.6834L8.97486 30.3919C8.12797 30.0354 7.18813 29.9933 6.31472 30.2728C5.44131 30.5523 4.68809 31.1361 4.1828 31.9252C3.6775 32.7143 3.45124 33.6602 3.54237 34.6024C3.63351 35.5447 4.03643 36.4252 4.68282 37.0948C5.3292 37.7644 6.17926 38.1818 7.08883 38.2762C7.9984 38.3706 8.9115 38.1362 9.67328 37.6128C10.4351 37.0894 10.9986 36.3091 11.2684 35.4043C11.5382 34.4996 11.4976 33.526 11.1535 32.6487L14.2827 29.4071H18.0458V38.6322C18.0458 38.995 18.1849 39.3429 18.4325 39.5994C18.6801 39.8559 19.016 40 19.3661 40H26.8482C27.1984 40 27.5342 39.8559 27.7819 39.5994C28.0295 39.3429 28.1686 38.995 28.1686 38.6322V35.2064L30.7371 35.656C31.2774 35.7504 31.8308 35.7277 32.3622 35.5893C32.8936 35.4509 33.3915 35.1998 33.8244 34.8519C34.2573 34.5039 34.6159 34.0667 34.8773 33.5679C35.1388 33.0691 35.2975 32.5195 35.3435 31.9539L35.7695 26.7053C36.8421 26.3803 37.865 25.9002 38.8081 25.2791C40.2508 24.3126 40.2605 22.4697 39.4921 21.2907L36.0424 16.002C35.391 7.05223 28.1739 0 19.3661 0Z" fill="url(#paint0_linear_143_75)"/>
<defs>
<linearGradient id="paint0_linear_143_75" x1="20" y1="0" x2="20" y2="40" gradientUnits="userSpaceOnUse">
<stop stop-color="#00DDFF"/>
<stop offset="1" stop-color="#00396F"/>
</linearGradient>
</defs>
</svg>
