<svg width="215" height="512" viewBox="0 0 215 512" fill="none" xmlns="http://www.w3.org/2000/svg">
<path d="M1.5 0L81.5127 160.06L215 256L81.5127 351.94L1.5 512L-78.5127 351.94L-212 256L-78.5127 160.06L1.5 0Z" fill="#00DDFF" fill-opacity="0.68"/>
<path d="M157.251 321.78C150.886 335.328 138.481 346.99 121.954 354.961C105.428 362.932 85.7033 366.768 65.8353 365.873C45.9672 364.978 27.0643 359.403 12.0541 350.011C-2.95604 340.619 -13.236 327.935 -17.1936 313.922C-21.1512 299.91 -18.5656 285.351 -9.83729 272.501C-1.109 259.65 13.275 249.226 31.087 242.841C48.899 236.456 69.1451 234.468 88.6898 237.183C108.234 239.899 125.987 247.168 139.198 257.863L71.5 301L157.251 321.78Z" fill="#05050A"/>
</svg>
