<?xml version="1.0" standalone="no"?>
<svg width="400" height="300" xmlns="http://www.w3.org/2000/svg" xmlns:xlink="http://www.w3.org/1999/xlink" version="1.1" baseProfile="full" style="position: absolute; left: 0px; top: 0px; user-select: none;"><rect width="400" height="300" x="0" y="0" fill="none"/><g><path d="M60 252.5L360 252.5" fill="none" stroke="#dbdee4"/><path d="M60 211.5L360 211.5" fill="none" stroke="#dbdee4"/><path d="M60 170.5L360 170.5" fill="none" stroke="#dbdee4"/><path d="M60 129.5L360 129.5" fill="none" stroke="#dbdee4"/><path d="M60 89.5L360 89.5" fill="none" stroke="#dbdee4"/><path d="M60 48.5L360 48.5" fill="none" stroke="#dbdee4"/><path d="M60 252.5L360 252.5" fill="none" stroke="#54555a" stroke-linecap="round"/><text dominant-baseline="central" text-anchor="end" transform="translate(52 252)" fill="#54555a" style="font-size: 12px; font-family: Outfit;">0</text><text dominant-baseline="central" text-anchor="end" transform="translate(52 211.2)" fill="#54555a" style="font-size: 12px; font-family: Outfit;">20</text><text dominant-baseline="central" text-anchor="end" transform="translate(52 170.4)" fill="#54555a" style="font-size: 12px; font-family: Outfit;">40</text><text dominant-baseline="central" text-anchor="end" transform="translate(52 129.6)" fill="#54555a" style="font-size: 12px; font-family: Outfit;">60</text><text dominant-baseline="central" text-anchor="end" transform="translate(52 88.8)" fill="#54555a" style="font-size: 12px; font-family: Outfit;">80</text><text dominant-baseline="central" text-anchor="end" transform="translate(52 48)" fill="#54555a" style="font-size: 12px; font-family: Outfit;">100</text><text dominant-baseline="central" text-anchor="middle" y="6" transform="translate(90 260)" fill="#54555a" style="font-size: 12px; font-family: Outfit;">A</text><text dominant-baseline="central" text-anchor="middle" y="6" transform="translate(150 260)" fill="#54555a" style="font-size: 12px; font-family: Outfit;">B</text><text dominant-baseline="central" text-anchor="middle" y="6" transform="translate(210 260)" fill="#54555a" style="font-size: 12px; font-family: Outfit;">C</text><text dominant-baseline="central" text-anchor="middle" y="6" transform="translate(270 260)" fill="#54555a" style="font-size: 12px; font-family: Outfit;">D</text><text dominant-baseline="central" text-anchor="middle" y="6" transform="translate(330 260)" fill="#54555a" style="font-size: 12px; font-family: Outfit;">E</text><path d="M77.5 201L102.5 201A5 5 0 0 1 107.5 206L107.5 252L72.5 252L72.5 206A5 5 0 0 1 77.5 201" fill="rgb(34,197,94)" stroke="rgb(1, 1, 1)" stroke-width="0"/><path d="M137.5 129.6L162.5 129.6A5 5 0 0 1 167.5 134.6L167.5 252L132.5 252L132.5 134.6A5 5 0 0 1 137.5 129.6" fill="rgb(255, 244, 1)" stroke="rgb(1, 1, 1)" stroke-width="0"/><path d="M197.5 88.8L222.5 88.8A5 5 0 0 1 227.5 93.8L227.5 252L192.5 252L192.5 93.8A5 5 0 0 1 197.5 88.8" fill="rgb(252,0,0)" stroke="rgb(1, 1, 1)" stroke-width="0"/><path d="M257.5 68.4L282.5 68.4A5 5 0 0 1 287.5 73.4L287.5 252L252.5 252L252.5 73.4A5 5 0 0 1 257.5 68.4" fill="rgb(255,0,0)" stroke="rgb(1, 1, 1)" stroke-width="0"/><path d="M317.5 58.2L342.5 58.2A5 5 0 0 1 347.5 63.2L347.5 252L312.5 252L312.5 63.2A5 5 0 0 1 317.5 58.2" fill="rgb(255,0,0)" stroke="rgb(1, 1, 1)" stroke-width="0"/><path d="M-43.8035 -12l87.6069 0l0 36l-87.6069 0Z" transform="translate(200 12)" fill="rgb(0,0,0)" fill-opacity="0" stroke="#3c3c41" stroke-width="0"/><text dominant-baseline="central" text-anchor="middle" y="6" transform="translate(200 12)" fill="rgb(255, 255, 255)" style="font-size: 18px; font-family: Outfit; font-weight: bold;">Multi-model</text></g></svg>