<svg width="40" height="40" viewBox="0 0 40 40" fill="none" xmlns="http://www.w3.org/2000/svg">
<path d="M34.0498 28.679L40 31.3653L34.0498 34.0498L31.3653 40L28.679 34.0498L22.7306 31.3653L28.679 28.679L31.3653 22.7306L34.0498 28.679ZM22.3635 23.4446C20.4323 25.6308 19.3684 28.4484 19.3727 31.3653C19.3727 33.3616 19.8616 35.2435 20.7251 36.9004H0V26.9114L12.9151 13.9963L22.3635 23.4446ZM3.69004 21.679H0V17.5277H3.69004V21.679ZM36.9004 21.679H33.2103V17.5277H36.9004V21.679ZM24.4465 6.91882C25.9145 6.91882 27.3223 7.50198 28.3604 8.54C29.3984 9.57802 29.9815 10.9859 29.9815 12.4539C29.9815 13.9219 29.3984 15.3297 28.3604 16.3677C27.3223 17.4058 25.9145 17.9889 24.4465 17.9889C22.9785 17.9889 21.5706 17.4058 20.5326 16.3677C19.4946 15.3297 18.9114 13.9219 18.9114 12.4539C18.9114 10.9859 19.4946 9.57802 20.5326 8.54C21.5706 7.50198 22.9785 6.91882 24.4465 6.91882ZM24.4465 10.6089C23.9572 10.6089 23.4879 10.8032 23.1419 11.1492C22.7959 11.4953 22.6015 11.9645 22.6015 12.4539C22.6015 12.9432 22.7959 13.4125 23.1419 13.7585C23.4879 14.1045 23.9572 14.2989 24.4465 14.2989C24.9358 14.2989 25.4051 14.1045 25.7511 13.7585C26.0971 13.4125 26.2915 12.9432 26.2915 12.4539C26.2915 11.9645 26.0971 11.4953 25.7511 11.1492C25.4051 10.8032 24.9358 10.6089 24.4465 10.6089ZM3.69004 14.2989H0V8.30258H3.69004V14.2989ZM36.9004 14.2989H33.2103V8.30258H36.9004V14.2989ZM5.0738 3.69004H3.69004V5.0738H0V0H5.0738V3.69004ZM36.9004 5.0738H33.2103V3.69004H31.8266V0H36.9004V5.0738ZM16.1439 3.69004H9.68635V0H16.1439V3.69004ZM27.214 3.69004H20.7565V0H27.214V3.69004Z" fill="url(#paint0_linear_143_95)"/>
<defs>
<linearGradient id="paint0_linear_143_95" x1="20" y1="0" x2="20" y2="40" gradientUnits="userSpaceOnUse">
<stop stop-color="#00DDFF"/>
<stop offset="1" stop-color="#00396F"/>
</linearGradient>
</defs>
</svg>
