<svg width="39" height="39" viewBox="0 0 39 39" fill="none" xmlns="http://www.w3.org/2000/svg">
<path d="M1.875 10.625V6.25C1.875 5.08968 2.33594 3.97688 3.15641 3.15641C3.97688 2.33594 5.08968 1.875 6.25 1.875H10.625M1.875 28.125V32.5C1.875 33.6603 2.33594 34.7731 3.15641 35.5936C3.97688 36.4141 5.08968 36.875 6.25 36.875H10.625M28.125 1.875H32.5C33.6603 1.875 34.7731 2.33594 35.5936 3.15641C36.4141 3.97688 36.875 5.08968 36.875 6.25V10.625M28.125 36.875H32.5C33.6603 36.875 34.7731 36.4141 35.5936 35.5936C36.4141 34.7731 36.875 33.6603 36.875 32.5V28.125M12.8125 15H12.8344M25.9375 15H25.9594M13.9062 26.0469C14.6191 25.3193 15.47 24.7413 16.409 24.3467C17.3481 23.9521 18.3564 23.7489 19.375 23.7489C20.3936 23.7489 21.4019 23.9521 22.341 24.3467C23.28 24.7413 24.1309 25.3193 24.8438 26.0469" stroke="url(#paint0_linear_146_103)" stroke-width="3.75" stroke-linecap="round" stroke-linejoin="round"/>
<defs>
<linearGradient id="paint0_linear_146_103" x1="19.375" y1="1.875" x2="19.375" y2="36.875" gradientUnits="userSpaceOnUse">
<stop stop-color="#00DDFF"/>
<stop offset="1" stop-color="#00396F"/>
</linearGradient>
</defs>
</svg>
